<?xml version="1.0" standalone="no"?>
<!DOCTYPE svg PUBLIC "-//W3C//DTD SVG 20010904//EN"
 "http://www.w3.org/TR/2001/REC-SVG-20010904/DTD/svg10.dtd">
<svg version="1.0" xmlns="http://www.w3.org/2000/svg"
 width="445.000000pt" height="593.000000pt" viewBox="0 0 445.000000 593.000000"
 preserveAspectRatio="xMidYMid meet">

<g transform="translate(0.000000,593.000000) scale(0.100000,-0.100000)"
fill="#000000" stroke="none">
<path d="M2070 5520 c-8 -5 -29 -7 -45 -4 -18 3 -50 -2 -75 -11 -25 -9 -76
-23 -115 -30 -87 -16 -248 -70 -253 -84 -2 -6 -9 -11 -17 -11 -7 0 -19 -10
-27 -22 -8 -12 -46 -38 -84 -58 -71 -37 -102 -76 -104 -127 0 -12 -6 -28 -14
-35 -26 -27 -44 -73 -39 -104 4 -24 0 -35 -19 -50 -38 -30 -52 -76 -44 -147 3
-34 8 -87 12 -117 3 -35 20 -86 45 -139 35 -71 45 -107 67 -245 15 -91 27
-206 27 -266 3 -216 44 -381 143 -575 17 -33 36 -82 43 -110 6 -27 18 -72 25
-99 13 -49 12 -51 -21 -108 -28 -46 -33 -63 -25 -82 4 -13 7 -36 5 -52 -1 -16
6 -46 17 -67 41 -82 92 -320 77 -369 -11 -40 -11 -38 1 -38 6 0 10 7 10 15 0
18 31 20 48 3 7 -7 12 -8 12 -2 0 5 5 2 11 -6 9 -13 10 -13 8 0 -1 8 -1 26 0
39 1 21 4 23 33 17 30 -6 31 -5 14 13 -16 18 -15 19 24 25 26 4 40 11 40 21 0
8 -4 15 -10 15 -5 0 -10 5 -10 10 0 6 9 10 19 10 10 0 21 7 25 15 7 19 46 20
46 1 0 -8 3 -23 6 -33 4 -13 3 -14 -3 -5 -8 10 -22 2 -59 -34 -27 -26 -41 -44
-32 -41 12 4 21 0 28 -13 14 -27 18 -83 7 -97 -6 -9 -4 -15 7 -19 9 -3 16 -13
16 -22 0 -17 15 -7 15 11 1 7 7 11 13 9 7 -1 57 29 110 67 78 56 103 80 121
117 13 26 43 66 66 88 24 23 53 57 66 76 40 58 139 190 166 220 48 54 146 205
179 277 34 71 42 117 25 127 -20 12 -22 87 -6 182 19 110 28 134 52 134 9 0
14 3 10 6 -10 11 37 51 56 46 13 -3 16 0 11 12 -9 22 22 21 31 -1 15 -38 25
31 29 199 l3 170 -27 32 c-23 26 -26 35 -18 50 20 36 58 218 63 303 3 35 10
81 16 101 10 35 8 44 -29 119 -36 73 -39 86 -31 125 11 57 11 60 -1 53 -6 -4
-10 5 -10 19 0 14 5 26 11 26 11 0 7 30 -16 116 -10 34 -31 69 -65 108 -27 31
-50 61 -50 66 0 17 -73 80 -92 80 -11 0 -47 11 -81 25 -34 13 -93 29 -131 35
-38 6 -85 18 -105 26 -42 18 -179 27 -201 14z m-720 -430 c0 -5 -2 -10 -4 -10
-3 0 -8 5 -11 10 -3 6 -1 10 4 10 6 0 11 -4 11 -10z m803 -125 c29 -6 33 -10
29 -31 -2 -13 -9 -21 -14 -18 -6 4 -8 -2 -6 -12 2 -11 12 -19 23 -19 26 0 31
-29 7 -53 -15 -15 -20 -16 -31 -5 -17 18 -41 16 -41 -3 0 -12 6 -15 21 -11 18
5 20 2 14 -24 -6 -27 -5 -29 25 -29 20 0 30 -4 28 -12 -7 -19 48 -60 71 -53
11 3 22 1 26 -5 3 -6 11 -7 17 -4 6 4 9 1 6 -6 -5 -16 -151 -69 -208 -74 -43
-4 -80 -25 -97 -54 -22 -38 -72 -53 -104 -33 -13 9 -26 18 -29 21 -11 11 -51
30 -64 30 -8 0 -27 7 -43 14 -15 8 -36 17 -45 20 -15 4 -16 10 -7 33 6 15 21
39 34 53 13 14 25 34 27 45 2 11 9 19 15 18 7 -2 15 7 18 19 5 15 9 17 15 8 6
-10 7 18 1 64 -1 4 -9 -2 -19 -14 -10 -13 -24 -21 -31 -19 -9 3 -6 12 9 32 14
17 19 34 15 47 -5 17 0 23 30 36 20 8 40 12 45 9 5 -3 11 -1 15 4 3 6 13 7 22
4 11 -4 14 -3 9 5 -4 7 -1 12 6 13 7 0 27 2 45 5 18 2 35 -1 38 -6 9 -15 25
-12 25 5 0 15 21 15 103 0z m624 -7 c-3 -8 -6 -5 -6 6 -1 11 2 17 5 13 3 -3 4
-12 1 -19z m80 -230 c-3 -8 -6 -5 -6 6 -1 11 2 17 5 13 3 -3 4 -12 1 -19z
m-863 -267 c4 -5 2 -21 -3 -34 -8 -20 -6 -29 10 -43 14 -12 19 -29 17 -60 -1
-25 6 -53 15 -68 9 -14 16 -35 14 -46 -2 -19 4 -22 41 -25 40 -3 54 6 31 21
-8 4 -7 9 2 15 8 4 14 14 14 21 0 20 5 21 70 12 33 -4 71 -7 85 -6 14 1 59 1
100 1 90 -1 87 -1 126 7 28 5 33 2 62 -43 18 -28 32 -62 32 -76 0 -33 -43 -77
-76 -77 -17 0 -28 -7 -31 -20 -11 -43 -178 -15 -255 42 -13 10 -40 29 -60 42
l-38 25 -11 -21 c-9 -17 -17 -19 -52 -15 -22 3 -44 13 -50 22 -8 14 -11 15
-25 2 -21 -18 -66 -29 -87 -21 -21 8 -48 73 -36 88 5 6 12 32 16 59 4 26 14
51 22 56 11 6 12 10 4 15 -8 5 -5 16 10 37 11 16 18 37 15 45 -11 29 23 69 38
45z m221 -91 c3 -5 -1 -10 -10 -10 -9 0 -13 5 -10 10 3 6 8 10 10 10 2 0 7 -4
10 -10z m-433 -25 c0 -5 -5 -11 -11 -13 -6 -2 -11 4 -11 13 0 9 5 15 11 13 6
-2 11 -8 11 -13z m-44 -180 c19 -14 20 -18 8 -38 -7 -12 -17 -35 -20 -50 -6
-24 -64 -72 -88 -72 -3 0 -10 -3 -14 -7 -13 -14 -47 -9 -67 10 -16 13 -21 14
-25 4 -3 -10 -7 -8 -16 6 -6 11 -16 29 -23 39 -11 18 -7 26 26 62 21 23 47 41
59 41 11 0 24 5 27 10 10 16 108 12 133 -5z m1050 -13 c10 -10 18 -27 19 -37
0 -11 4 -40 8 -65 7 -48 -13 -120 -34 -120 -14 0 -14 6 -1 30 7 12 7 28 0 44
-5 14 -10 42 -12 62 -1 21 -9 41 -19 47 -15 10 -16 13 -2 34 18 28 18 28 41 5z
m-592 -109 c-3 -8 -6 -19 -6 -24 0 -14 -26 -11 -40 6 -9 11 -10 18 -1 29 15
18 54 9 47 -11z m560 -68 c-24 -36 -43 -32 -39 8 8 58 12 62 34 38 19 -21 20
-24 5 -46z m-683 -14 c4 -16 -2 -21 -35 -26 -47 -8 -63 0 -19 10 17 4 31 13
31 21 0 21 17 17 23 -5z m-123 -31 c0 -5 -4 -10 -10 -10 -5 0 -10 5 -10 10 0
6 5 10 10 10 6 0 10 -4 10 -10z m815 -21 c0 -8 -12 -14 -29 -16 -27 -2 -28 -1
-10 18 19 21 39 21 39 -2z m-286 -36 c-4 -48 0 -55 31 -48 19 4 30 3 30 -4 0
-6 -7 -11 -15 -11 -9 0 -18 -6 -21 -14 -3 -8 -17 -22 -30 -31 -23 -15 -26 -15
-41 1 -13 13 -14 20 -5 35 7 10 12 26 12 34 0 8 4 15 9 15 5 0 11 9 14 20 6
25 19 27 16 3z m-86 -30 c-6 -39 -33 -54 -33 -18 0 20 27 62 35 53 1 -2 0 -17
-2 -35z m-343 3 c0 -14 -43 -25 -110 -29 -25 -1 -35 2 -35 13 0 10 14 17 45
21 81 11 100 10 100 -5z m60 4 c0 -5 -9 -10 -20 -10 -11 0 -20 5 -20 10 0 6 9
10 20 10 11 0 20 -4 20 -10z m-225 -20 c3 -5 -3 -10 -15 -10 -12 0 -18 5 -15
10 3 6 10 10 15 10 5 0 12 -4 15 -10z m152 -47 c3 -7 -4 -9 -18 -6 -14 4 -20
2 -16 -4 4 -6 -3 -8 -18 -5 -25 4 -31 13 -18 26 11 11 66 3 70 -11z m217 -24
c-10 -16 -24 -9 -24 12 0 18 2 19 15 9 8 -7 12 -16 9 -21z m-324 11 c0 -5 -7
-7 -15 -4 -8 4 -15 8 -15 10 0 2 7 4 15 4 8 0 15 -4 15 -10z m206 -30 c0 -17
-7 -20 -43 -21 -24 -1 -48 -2 -55 -3 -6 -1 -13 4 -15 11 -3 7 13 16 39 21 66
15 74 14 74 -8z m14 -83 c0 -21 -8 -41 -19 -51 -18 -17 -18 -18 3 -57 18 -34
19 -41 6 -49 -8 -5 -25 -10 -37 -10 -12 0 -23 -6 -26 -12 -3 -10 -7 -10 -20 1
-9 7 -43 14 -76 15 -43 1 -65 7 -80 20 l-21 19 27 29 c15 15 33 28 40 28 7 0
13 7 13 16 0 12 6 15 21 11 27 -7 79 2 79 14 0 5 -12 15 -27 23 l-28 15 47 1
c26 0 50 5 53 10 3 6 15 10 26 10 15 0 19 -7 19 -33z m45 -67 c3 -5 1 -10 -4
-10 -6 0 -11 5 -11 10 0 6 2 10 4 10 3 0 8 -4 11 -10z m20 -790 c-4 -6 -16
-10 -26 -7 -21 6 -25 -3 -8 -20 7 -7 4 -12 -10 -16 -35 -9 -35 12 0 44 20 19
36 26 42 20 5 -5 6 -15 2 -21z"/>
<path d="M2110 4780 c0 -5 5 -10 10 -10 6 0 10 5 10 10 0 6 -4 10 -10 10 -5 0
-10 -4 -10 -10z"/>
<path d="M2027 3603 c-24 -23 8 -30 37 -8 19 14 19 15 -5 15 -14 0 -29 -3 -32
-7z"/>
<path d="M1463 2905 c-10 -11 -9 -13 6 -12 11 1 17 7 14 14 -6 16 -5 16 -20
-2z"/>
<path d="M1464 2745 c-17 -28 -48 -81 -69 -120 -21 -38 -45 -81 -53 -95 -9
-14 6 -4 32 22 l47 48 37 -15 c20 -9 44 -22 52 -30 9 -8 30 -15 46 -15 23 0
38 -10 68 -45 27 -33 43 -44 56 -40 10 3 21 1 25 -5 3 -5 19 -10 34 -10 16 0
40 -9 54 -20 28 -22 37 -25 37 -10 0 13 -75 46 -123 55 -39 8 -87 56 -87 88 0
9 -14 31 -31 49 -64 69 -83 101 -89 147 l-5 46 -31 -50z"/>
<path d="M2223 2718 c-21 -24 -73 -110 -73 -121 0 -14 22 -6 56 19 24 19 38
24 47 16 35 -29 209 -112 235 -112 17 0 59 -9 94 -20 71 -22 82 -24 73 -11 -3
5 -41 21 -86 36 -91 31 -245 128 -286 181 -30 40 -33 41 -60 12z"/>
<path d="M1750 2560 c0 -5 5 -10 10 -10 6 0 10 5 10 10 0 6 -4 10 -10 10 -5 0
-10 -4 -10 -10z"/>
<path d="M1830 2540 c0 -5 5 -10 10 -10 6 0 10 5 10 10 0 6 -4 10 -10 10 -5 0
-10 -4 -10 -10z"/>
<path d="M1793 2511 c15 -18 27 -37 27 -42 0 -5 4 -9 9 -9 15 0 -15 50 -41 68
-21 15 -21 13 5 -17z"/>
<path d="M2056 2451 c-10 -11 -35 -23 -57 -26 -55 -10 -140 -42 -159 -61 -14
-14 -11 -14 25 -1 22 8 67 23 100 32 64 19 125 51 125 66 0 15 -16 10 -34 -10z"/>
<path d="M550 2046 c0 -14 4 -27 8 -30 5 -3 6 8 4 25 -5 35 -12 38 -12 5z"/>
<path d="M561 1984 c0 -11 3 -14 6 -6 3 7 2 16 -1 19 -3 4 -6 -2 -5 -13z"/>
<path d="M3371 1966 c-6 -7 -12 -25 -13 -40 -1 -14 -6 -26 -10 -26 -5 0 -7
-92 -5 -204 2 -190 1 -204 -14 -195 -12 6 -19 5 -22 -4 -3 -7 -6 -5 -6 5 -1
10 -7 15 -15 12 -7 -3 -39 6 -71 20 -37 17 -76 26 -108 26 -63 0 -57 -7 24
-26 78 -18 85 -24 94 -77 6 -35 8 -38 15 -22 5 11 9 14 9 8 1 -7 8 -13 17 -13
8 0 13 -4 10 -9 -3 -5 3 -11 14 -14 12 -3 20 -14 20 -27 0 -16 4 -20 15 -16
19 7 21 -30 3 -38 -7 -3 -3 -3 8 -1 16 4 23 0 29 -17 12 -39 17 -80 17 -158
l-1 -75 19 85 c10 47 28 139 40 205 12 66 26 130 31 143 14 36 20 182 8 182
-6 0 -8 -4 -5 -9 5 -8 -55 -23 -63 -15 -2 2 2 10 9 19 10 12 9 15 -6 16 -11 1
-25 1 -31 0 -9 -1 -13 12 -13 39 0 27 4 40 14 40 7 0 16 9 19 20 3 11 2 18 -2
15 -5 -2 -8 9 -9 25 0 22 4 30 16 30 13 0 14 2 4 9 -13 8 -13 46 0 66 4 6 -2
16 -12 23 -14 8 -21 8 -29 -2z m99 -310 c0 -2 -9 -6 -20 -9 -11 -3 -18 -1 -14
4 5 9 34 13 34 5z"/>
<path d="M633 1800 c0 -25 2 -35 4 -22 2 12 2 32 0 45 -2 12 -4 2 -4 -23z"/>
<path d="M576 1767 c4 -6 16 -22 27 -34 14 -15 18 -31 14 -50 -2 -15 -1 -37 3
-48 5 -11 9 -15 10 -10 12 108 12 109 -25 132 -20 13 -33 17 -29 10z"/>
<path d="M609 1433 c-2 -7 -2 -50 1 -95 3 -46 4 -91 2 -100 -4 -16 -7 -16 -34
-2 -16 8 -35 13 -41 10 -8 -3 -9 -5 -1 -5 7 -1 28 -22 49 -47 27 -33 33 -45
20 -42 -11 2 -19 -4 -20 -15 -2 -9 0 -15 5 -12 9 5 20 -43 20 -86 0 -16 4 -29
8 -29 9 0 9 -5 16 -274 4 -153 9 -212 18 -218 10 -6 10 -8 1 -8 -6 0 -10 -9
-8 -20 2 -11 0 -20 -5 -20 -10 0 -6 -17 18 -70 10 -24 12 -35 3 -38 -14 -5
-15 -32 -1 -32 6 0 10 -7 10 -15 0 -8 5 -15 10 -15 13 0 13 -57 0 -65 -9 -6
22 -61 43 -76 5 -3 8 -9 7 -13 -2 -11 34 -66 43 -66 5 0 -1 13 -12 29 -11 15
-19 30 -17 32 2 2 6 20 9 39 3 19 10 48 16 63 14 35 14 37 -1 37 -28 0 -39 20
-63 106 -30 114 -32 128 -40 314 -17 428 -43 767 -56 733z"/>
<path d="M3380 954 c0 -9 9 -62 21 -117 15 -74 20 -123 16 -179 -3 -46 -1 -78
4 -78 5 0 12 7 15 15 9 22 21 19 58 -17 38 -38 60 -82 81 -164 18 -71 19 -100
3 -160 -12 -42 -11 -47 7 -60 11 -8 36 -17 57 -21 21 -3 38 -9 38 -14 0 -5 10
-9 22 -9 12 0 73 -16 135 -36 113 -36 164 -42 102 -12 -19 8 -57 23 -86 32
-58 18 -186 87 -220 119 -13 11 -23 28 -23 38 0 16 4 16 44 4 30 -9 60 -11 93
-6 l48 8 -30 14 c-51 24 -125 70 -125 78 0 5 -13 22 -30 39 -16 18 -30 40 -30
49 0 10 -29 77 -65 148 -37 72 -67 140 -68 153 -1 12 -5 22 -10 22 -5 0 -6 8
-3 17 4 9 1 20 -5 24 -7 4 -13 23 -13 43 -1 20 -4 36 -8 36 -5 0 -8 11 -8 25
0 14 -4 25 -10 25 -5 0 -10 -7 -10 -16z"/>
<path d="M416 862 c-2 -4 -6 -57 -7 -117 -1 -61 -6 -129 -11 -152 -10 -55 -4
-68 32 -70 25 -2 29 1 27 18 -2 11 -9 24 -15 28 -6 4 -11 20 -11 36 2 79 -3
265 -6 265 -2 0 -6 -3 -9 -8z"/>
<path d="M1621 724 c0 -11 3 -14 6 -6 3 7 2 16 -1 19 -3 4 -6 -2 -5 -13z"/>
<path d="M1622 600 c0 -14 2 -19 5 -12 2 6 2 18 0 25 -3 6 -5 1 -5 -13z"/>
<path d="M385 437 c-10 -40 10 -69 43 -61 15 4 28 7 29 8 0 1 -14 18 -33 40
l-33 38 -6 -25z"/>
<path d="M1611 364 c0 -11 3 -14 6 -6 3 7 2 16 -1 19 -3 4 -6 -2 -5 -13z"/>
<path d="M384 329 c-8 -14 55 -79 75 -78 12 0 10 4 -6 16 -26 17 -31 38 -8 29
9 -3 15 0 15 9 0 8 -9 15 -19 15 -11 0 -23 5 -26 10 -8 13 -22 13 -31 -1z"/>
<path d="M3468 258 c-56 -119 -56 -134 0 -213 26 -37 32 -40 80 -43 29 -2 52
0 52 4 0 7 -32 79 -67 150 -8 18 -15 48 -16 68 -1 22 -6 36 -14 36 -7 0 -13 5
-13 10 0 6 7 10 15 10 9 0 12 6 9 15 -10 26 -21 17 -46 -37z"/>
<path d="M3830 266 c0 -2 11 -6 25 -8 13 -3 22 -1 19 3 -5 9 -44 13 -44 5z"/>
<path d="M3760 250 c8 -5 29 -9 45 -9 26 0 27 2 10 9 -11 5 -31 9 -45 9 -20 1
-22 -1 -10 -9z"/>
<path d="M3312 220 c0 -19 2 -27 5 -17 2 9 2 25 0 35 -3 9 -5 1 -5 -18z"/>
<path d="M440 229 c0 -5 11 -9 25 -9 14 0 25 2 25 4 0 2 -11 6 -25 8 -14 3
-25 1 -25 -3z"/>
<path d="M3908 233 c7 -3 16 -2 19 1 4 3 -2 6 -13 5 -11 0 -14 -3 -6 -6z"/>
<path d="M1041 204 c0 -11 3 -14 6 -6 3 7 2 16 -1 19 -3 4 -6 -2 -5 -13z"/>
<path d="M3313 95 c0 -38 2 -53 4 -32 2 20 2 52 0 70 -2 17 -4 1 -4 -38z"/>
<path d="M354 54 c-20 -29 -12 -54 17 -54 14 0 19 5 16 14 -5 12 3 14 41 10
26 -2 56 -6 67 -9 11 -2 27 0 35 5 12 8 10 10 -10 10 -21 0 -22 2 -10 11 13 9
12 10 -3 5 -9 -3 -30 -1 -45 5 -15 6 -42 15 -60 19 -28 7 -35 5 -48 -16z"/>
<path d="M1612 30 c0 -19 2 -27 5 -17 2 9 2 25 0 35 -3 9 -5 1 -5 -18z"/>
<path d="M727 30 c-7 -27 -1 -39 12 -24 5 5 5 18 2 28 -7 18 -8 18 -14 -4z"/>
<path d="M838 23 c6 -2 18 -2 25 0 6 3 1 5 -13 5 -14 0 -19 -2 -12 -5z"/>
</g>
</svg>
